<svg xmlns="http://www.w3.org/2000/svg" viewBox="0 0 120 150" role="img" aria-label="Assistant">
  <defs>
    <linearGradient id="clip" x1="0" y1="0" x2="0" y2="1">
      <stop offset="0%" stop-color="#d6d6d6"/>
      <stop offset="100%" stop-color="#9a9a9a"/>
    </linearGradient>
  </defs>
  <rect width="120" height="150" fill="none"/>
  <path d="M60 20
           c-20 0-35 16-35 36
           v52
           c0 18 14 32 31 32
           s31-14 31-32
           v-46
           c0-12-9-22-20-22
           s-20 10-20 22
           v46" fill="none" stroke="url(#clip)" stroke-width="10" stroke-linecap="round"/>
  <path d="M44 63
           v45
           c0 8 7 15 16 15
           s16-7 16-15
           v-45" fill="none" stroke="#777" stroke-width="6" stroke-linecap="round"/>
  <circle cx="47" cy="47" r="6" fill="#fff" stroke="#000" stroke-width="2"/>
  <circle cx="73" cy="47" r="6" fill="#fff" stroke="#000" stroke-width="2"/>
  <circle cx="49" cy="47" r="2" fill="#000"/>
  <circle cx="75" cy="47" r="2" fill="#000"/>
  <path d="M52 60
           q8 6 16 0" fill="none" stroke="#000" stroke-width="3" stroke-linecap="round"/>
</svg>
